<svg width="800" height="723" viewBox="0 0 800 723" fill="none" xmlns="http://www.w3.org/2000/svg">
<path d="M242.494 79.9485C229.947 87.1925 216.744 107.169 215.212 150.744C214.484 171.442 197.115 187.631 176.417 186.903C155.719 186.175 139.53 168.806 140.258 148.108C142.136 94.6876 159.03 41.534 204.994 14.9965C251.089 -11.6163 305.742 0.46885 353.064 25.7145C371.337 35.463 378.247 58.1791 368.499 76.4516C358.75 94.7246 336.034 101.635 317.762 91.887C279.09 71.256 255.079 72.6825 242.494 79.9485ZM443.569 144.993C459.518 131.78 483.157 133.998 496.37 149.946C524.09 183.403 550.68 221.554 574.815 263.36C626.83 353.447 658.9 445.744 667.545 523.161C671.86 561.806 670.54 598.581 661.515 630.121C652.42 661.901 634.705 690.666 604.995 707.816C569.05 728.571 527.545 725.626 489.557 711.796C451.434 697.916 412.197 671.631 374.793 637.491C359.496 623.526 358.415 599.806 372.378 584.511C386.34 569.216 410.059 568.131 425.356 582.096C458.312 612.176 489.283 631.876 515.215 641.321C541.285 650.811 557.685 648.531 567.495 642.866C575.715 638.121 583.985 628.451 589.41 609.486C594.905 590.286 596.64 563.996 593.01 531.481C585.76 466.576 557.955 384.155 509.865 300.86C487.746 262.549 463.54 227.879 438.616 197.794C425.403 181.846 427.621 158.206 443.569 144.993Z" fill="url(#paint0_linear_236_9)"/>
<path d="M725 371.63C725 357.142 714.3 335.719 677.33 312.605C659.77 301.626 654.435 278.489 665.415 260.928C676.395 243.367 699.53 238.032 717.09 249.011C762.415 277.348 800 318.555 800 371.63C800 424.856 762.21 466.141 716.685 494.501C699.105 505.451 675.975 500.081 665.025 482.501C654.075 464.921 659.45 441.795 677.025 430.844C714.23 407.669 725 386.161 725 371.63ZM568.13 513.241C571.6 533.661 557.86 553.026 537.44 556.496C494.61 563.771 448.274 567.721 400 567.721C295.977 567.721 200.009 549.351 128.643 518.126C93.016 502.541 61.8295 483.011 39.0265 459.426C16.0489 435.659 0 405.934 0 371.63C0 330.126 23.3041 295.651 54.274 269.669C85.356 243.594 127.735 222.755 176.006 207.433C195.747 201.168 216.829 212.091 223.095 231.831C229.36 251.571 218.437 272.653 198.697 278.919C156.167 292.418 123.62 309.39 102.477 327.128C81.221 344.96 75 360.301 75 371.63C75 381.119 79.238 393.116 92.9475 407.297C106.832 421.658 128.732 436.304 158.704 449.417C218.538 475.591 303.82 492.721 400 492.721C444.238 492.721 486.366 489.096 524.88 482.551C545.3 479.086 564.665 492.826 568.13 513.241Z" fill="url(#paint1_linear_236_9)"/>
<path d="M243.596 642.866C256.143 650.111 280.045 651.556 318.548 631.096C336.837 621.376 359.541 628.326 369.26 646.611C378.979 664.901 372.031 687.606 353.742 697.326C306.54 722.406 252.061 734.356 206.096 707.816C160.002 681.206 143.141 627.831 141.344 574.226C140.65 553.526 156.867 536.186 177.566 535.491C198.265 534.796 215.608 551.011 216.302 571.711C217.771 615.521 231.012 635.601 243.596 642.866ZM199.389 436.207C179.972 429.001 170.073 407.42 177.278 388.003C192.393 347.27 212.137 305.166 236.274 263.36C288.286 173.273 352.181 99.349 414.903 53.1555C446.216 30.0945 478.721 12.8505 510.55 4.89602C542.62 -3.11953 576.39 -2.15588 606.095 14.9965C642.04 35.7485 660.245 73.168 667.26 112.979C674.3 152.935 671.16 200.055 660.29 249.521C655.845 269.749 635.845 282.545 615.62 278.101C595.39 273.657 582.595 253.657 587.04 233.428C596.61 189.847 598.185 153.174 593.4 125.995C588.585 98.671 578.405 85.613 568.595 79.9485C560.38 75.2035 547.87 72.8755 528.735 77.658C509.355 82.5015 485.721 94.145 459.379 113.545C406.792 152.274 349.316 217.565 301.226 300.86C279.107 339.17 261.185 377.468 247.593 414.096C240.387 433.512 218.806 443.412 199.389 436.207Z" fill="url(#paint2_linear_236_9)"/>
<path d="M472.962 364.66C472.962 402.198 442.531 432.629 404.993 432.629C367.455 432.629 337.025 402.198 337.025 364.66C337.025 327.122 367.455 296.692 404.993 296.692C442.531 296.692 472.962 327.122 472.962 364.66Z" fill="url(#paint3_linear_236_9)"/>
<defs>
<linearGradient id="paint0_linear_236_9" x1="90.2455" y1="-365.983" x2="1005.58" y2="482.242" gradientUnits="userSpaceOnUse">
<stop stop-color="#B76DC0"/>
<stop offset="1" stop-color="#4E22C9"/>
</linearGradient>
<linearGradient id="paint1_linear_236_9" x1="-75.5" y1="22.3372" x2="216.28" y2="837.588" gradientUnits="userSpaceOnUse">
<stop stop-color="#B76DC0"/>
<stop offset="1" stop-color="#4E22C9"/>
</linearGradient>
<linearGradient id="paint2_linear_236_9" x1="91.3321" y1="-365.936" x2="1006.66" y2="482.314" gradientUnits="userSpaceOnUse">
<stop stop-color="#B76DC0"/>
<stop offset="1" stop-color="#4E22C9"/>
</linearGradient>
<linearGradient id="paint3_linear_236_9" x1="324.196" y1="227.859" x2="492.2" y2="440.301" gradientUnits="userSpaceOnUse">
<stop stop-color="#B76DC0"/>
<stop offset="1" stop-color="#4E22C9"/>
</linearGradient>
</defs>
</svg>
